<svg id='Twitter_24' width='24' height='24' viewBox='0 0 24 24' xmlns='http://www.w3.org/2000/svg' xmlns:xlink='http://www.w3.org/1999/xlink'>
  <rect width='24' height='24' stroke='none' fill='#000000' opacity='0'/>
  <g transform="matrix(0.56 0 0 0.56 12 12)">
    <path style="stroke: none; stroke-width: 1; stroke-dasharray: none; stroke-linecap: butt; stroke-dashoffset: 0; stroke-linejoin: miter; stroke-miterlimit: 4; fill: rgb(3,169,244); fill-rule: nonzero; opacity: 1;" transform=" translate(-24, -23.5)" d="M 42 12.429 C 40.677 13.015 39.254 13.406 37.753 13.591000000000001 C 39.279 12.685 40.453 11.240000000000002 41.004 9.533000000000001 C 39.576 10.370000000000001 37.994 10.985000000000001 36.311 11.309000000000001 C 34.967 9.884 33.05 9 30.926 9 C 26.845999999999997 9 23.538999999999998 12.278 23.538999999999998 16.32 C 23.538999999999998 16.892 23.605999999999998 17.449 23.732 17.990000000000002 C 17.594 17.682000000000002 12.149999999999999 14.764000000000003 8.508 10.336000000000002 C 7.867999999999999 11.418000000000003 7.507999999999999 12.685000000000002 7.507999999999999 14.022000000000002 C 7.507999999999999 16.563000000000002 8.809 18.8 10.793 20.118000000000002 C 9.581999999999999 20.081000000000003 8.442 19.744000000000003 7.443999999999999 19.204 C 7.443999999999999 19.226 7.443999999999999 19.259 7.443999999999999 19.29 C 7.443999999999999 22.841 9.991 25.798 13.366999999999999 26.471 C 12.75 26.64 12.097999999999999 26.734 11.425999999999998 26.734 C 10.948999999999998 26.734 10.483999999999998 26.680000000000003 10.033999999999999 26.599 C 10.973999999999998 29.501 13.700999999999999 31.622 16.932 31.685000000000002 C 14.403999999999998 33.645 11.219999999999999 34.819 7.757999999999999 34.819 C 7.159999999999999 34.819 6.574999999999999 34.785000000000004 5.996999999999999 34.715 C 9.268 36.786 13.152 38 17.321 38 C 30.906000000000002 38 38.338 26.844 38.338 17.166 C 38.338 16.849 38.328 16.533 38.313 16.221 C 39.763 15.197 41.013 13.905 42 12.429" stroke-linecap="round" />
  </g>
</svg>