<svg id='Computer_Logo_Twitter_24' width='24' height='24' viewBox='0 0 24 24' xmlns='http://www.w3.org/2000/svg' xmlns:xlink='http://www.w3.org/1999/xlink'><rect width='24' height='24' stroke='none' fill='#000000' opacity='0'/>
<g transform="matrix(2.21 0 0 2.21 12 12)" >
<path style="stroke: rgb(0,0,0); stroke-width: 1; stroke-dasharray: none; stroke-linecap: round; stroke-dashoffset: 0; stroke-linejoin: round; stroke-miterlimit: 4; fill: none; fill-rule: nonzero; opacity: 1;" transform=" translate(-4.98, -5)" d="M 2.9 6.709 C 2.3925985384707564 7.106340297241724 1.8113642146043443 7.398996877855164 1.1900000000000006 7.57 C 1.0509475768463425 7.620800302689791 0.9571706887714382 7.751547365420932 0.9536363801147285 7.89954654042065 C 0.9501020714580188 8.04754571542037 1.0375309851283732 8.182620080879754 1.174 8.24 C 6.1 10.257 9.226 7.1 8.752 3.669 L 9.5 2.016 L 8.625 2.016 C 7.469 0.606 4.414 0.677 4.92 3.692 C 4.92 3.692 3.282 3.984 1.1919999999999997 1.9240000000000002 C 1.0955935936747863 1.8307803284374815 0.9554574969069418 1.7986839559027306 0.8280883748592089 1.8406507176977003 C 0.700719252811476 1.88261747949267 0.6071101079834457 1.9917304060952543 0.5849999999999997 2.124 C 0.11303603340178298 4.014930075241052 1.0982008093722548 5.966109555942831 2.8999999999999995 6.709 Z" stroke-linecap="round" />
</g>
</svg>
